<?xml version="1.0" standalone="no"?>
<!DOCTYPE svg PUBLIC "-//W3C//DTD SVG 20010904//EN"
 "http://www.w3.org/TR/2001/REC-SVG-20010904/DTD/svg10.dtd">
<svg version="1.0" xmlns="http://www.w3.org/2000/svg"
 width="192.000000pt" height="192.000000pt" viewBox="0 0 192.000000 192.000000"
 preserveAspectRatio="xMidYMid meet">

<g transform="translate(0.000000,192.000000) scale(0.100000,-0.100000)"
fill="#000000" stroke="none">
<path d="M800 856 c0 -2 8 -10 18 -17 15 -13 16 -12 3 4 -13 16 -21 21 -21 13z"/>
<path d="M450 551 c0 -28 5 -53 10 -56 6 -4 10 5 10 19 0 14 5 26 10 26 6 0
10 -9 10 -19 0 -11 5 -23 10 -26 6 -4 10 15 10 50 0 35 -4 54 -10 50 -5 -3
-10 -13 -10 -21 0 -8 -4 -14 -10 -14 -5 0 -10 9 -10 20 0 11 -4 20 -10 20 -5
0 -10 -22 -10 -49z"/>
<path d="M530 545 c0 -52 1 -55 25 -55 14 0 25 5 25 10 0 6 -7 10 -15 10 -21
0 -19 28 3 33 16 4 16 5 0 6 -22 1 -24 31 -3 31 8 0 15 5 15 10 0 6 -11 10
-25 10 -24 0 -25 -3 -25 -55z"/>
<path d="M602 549 c-12 -50 -9 -79 4 -45 8 20 34 21 34 0 0 -8 4 -13 9 -10 11
7 -11 98 -25 103 -6 2 -16 -20 -22 -48z m28 0 c0 -11 -4 -18 -10 -14 -5 3 -7
12 -3 20 7 21 13 19 13 -6z"/>
<path d="M670 546 c0 -49 3 -56 19 -56 11 0 23 5 26 10 3 6 -1 10 -9 10 -12 0
-16 10 -16 39 0 22 -4 43 -10 46 -6 4 -10 -15 -10 -49z"/>
<path d="M710 590 c0 -5 5 -10 10 -10 6 0 10 -21 10 -47 0 -25 3 -43 7 -39 4
4 6 25 4 46 -1 24 2 40 8 40 6 0 11 5 11 10 0 6 -11 10 -25 10 -14 0 -25 -4
-25 -10z"/>
<path d="M782 545 c0 -38 3 -51 7 -36 9 35 31 39 31 6 0 -15 4 -24 10 -20 6 3
10 26 10 50 0 24 -4 47 -10 50 -5 3 -10 -3 -10 -14 0 -28 -28 -27 -33 2 -2 12
-4 -5 -5 -38z"/>
<path d="M901 563 c-6 -21 -11 -46 -11 -55 0 -17 1 -17 18 0 10 9 14 19 10 20
-4 2 -8 13 -8 25 1 22 1 22 15 3 16 -21 18 -15 9 22 -9 33 -22 27 -33 -15z"/>
<path d="M971 543 c1 -32 4 -47 6 -34 3 13 14 26 24 28 29 8 22 57 -8 61 -22
3 -23 0 -22 -55z m31 22 c0 -5 -5 -11 -11 -13 -6 -2 -11 4 -11 13 0 9 5 15 11
13 6 -2 11 -8 11 -13z"/>
<path d="M1040 544 c0 -32 4 -53 10 -49 5 3 7 12 4 20 -4 10 3 18 20 25 40 15
28 60 -16 60 -15 0 -18 -9 -18 -56z m38 25 c-2 -6 -8 -10 -13 -10 -5 0 -11 4
-13 10 -2 6 4 11 13 11 9 0 15 -5 13 -11z"/>
<path d="M1117 594 c-4 -4 -7 -26 -7 -50 0 -29 5 -44 16 -48 28 -11 45 14 42
58 -2 32 -7 42 -23 44 -12 2 -24 0 -28 -4z m33 -49 c0 -19 -4 -35 -10 -35 -12
0 -24 45 -15 59 13 22 25 10 25 -24z"/>
<path d="M1193 545 c0 -33 2 -45 4 -27 2 18 2 45 0 60 -2 15 -4 0 -4 -33z"/>
<path d="M1227 593 c-4 -3 -7 -26 -7 -49 0 -51 20 -71 21 -22 l1 33 14 -32 c8
-18 16 -33 19 -33 3 0 4 26 4 58 -1 48 -3 52 -8 22 l-6 -35 -12 33 c-12 33
-15 36 -26 25z"/>
<path d="M1307 593 c-4 -3 -7 -26 -7 -49 0 -51 20 -71 21 -22 l1 33 14 -32 c8
-18 16 -33 19 -33 3 0 4 26 4 58 -1 48 -3 52 -8 22 l-6 -35 -12 33 c-12 33
-15 36 -26 25z"/>
<path d="M1380 590 c0 -5 4 -10 9 -10 6 0 12 -21 14 -47 l3 -48 2 48 c1 26 7
47 12 47 6 0 10 5 10 10 0 6 -11 10 -25 10 -14 0 -25 -4 -25 -10z"/>
</g>
</svg>
